{
  "title": "Cinderella 2015 DVDSCR.CAM AUDIO-FANTA",
  "uid": 11768651,
  "size": 699866680,
  "categoryP": "video",
  "categoryS": "movies",
  "magnet": "?xt=urn:btih:233a50cde5839f6531e1669a8ae55c08ccb3f886&amp;dn=Cinderella+2015+DVDSCR.CAM+AUDIO-FANTA&amp;tr=udp%3A%2F%2Ftracker.openbittorrent.com%3A80&amp;tr=udp%3A%2F%2Fopen.demonii.com%3A1337&amp;tr=udp%3A%2F%2Ftracker.coppersurfer.tk%3A6969&amp;tr=udp%3A%2F%2Fexodus.desync.com%3A6969",
  "seeders": 100,
  "leechers": 22,
  "uploader": "xxxlavalxxx",
  "files": 13,
  "time": 1426967079,
  "description": "[img]http://extraimago.com/images/2015/03/16/hEMKQSHq.jpg[/img]\n &lt;a href=&quot;\nhttp://www.imdb.com/title/tt1661199/&quot; rel=&quot;nofollow&quot; target=&quot;_NEW&quot;&gt;\nhttp://www.imdb.com/title/tt1661199/&lt;/a&gt;\n\n\nWhen her father unexpectedly passes away, young Ella finds herself at the mercy of her cruel stepmother and her daughters. Never one to give up hope, Ella's fortunes begin to change after meeting a dashing stranger.\n\nDirector: Kenneth Branagh\nWriter: Chris Weitz (screenplay)\nStars: Lily James, Cate Blanchett, Richard Madden\nGenres: Drama | Family | Fantasy | Romance\nCountry: USA\nLanguage: English\n\n\nFormat                                   : Matroska\nFormat version                           : Version 4 / Version 2\nFile size                                : 662 MiB\nDuration                                 : 1h 45mn\nOverall bit rate                         : 877 Kbps\nEncoded date                             : UTC 2015-03-21 17:55:47\nWriting application                      : mkvmerge v7.7.0 ('Six Voices') 32bit built on Feb 28 2015 23:23:00\nWriting library                          : libebml v1.3.1 + libmatroska v1.4.2\nDURATION                                 : 01:45:38.016000000\nNUMBER_OF_FRAMES                         : 198063\nNUMBER_OF_BYTES                          : 152112384\n_STATISTICS_WRITING_APP                  : mkvmerge v7.7.0 ('Six Voices') 32bit built on Feb 28 2015 23:23:00\n_STATISTICS_WRITING_DATE_UTC             : 2015-03-21 17:55:47\n_STATISTICS_TAGS                         : BPS DURATION NUMBER_OF_FRAMES NUMBER_OF_BYTES\n\nVideo\nID                                       : 1\nFormat                                   : RealVideo 4\nCodec ID                                 : V_REAL/RV40\nCodec ID/Info                            : RealVideo 4.0 aka RealVideo 9\nDuration                                 : 1h 45mn\nBit rate                                 : 667 Kbps\nWidth                                    : 720 pixels\nHeight                                   : 408 pixels\nDisplay aspect ratio                     : 16:9\nFrame rate mode                          : Variable\nFrame rate                               : 23.976 fps\nBits/(Pixel*Frame)                       : 0.095\nStream size                              : 504 MiB (76%)\nDefault                                  : Yes\nForced                                   : No\n\nAudio\nID                                       : 2\nFormat                                   : AC-3\nFormat/Info                              : Audio Coding 3\nMode extension                           : CM (complete main)\nFormat settings, Endianness              : Big\nCodec ID                                 : A_AC3\nDuration                                 : 1h 45mn\nBit rate mode                            : Constant\nBit rate                                 : 192 Kbps\nChannel(s)                               : 2 channels\nChannel positions                        : Front: L R\nSampling rate                            : 48.0 KHz\nBit depth                                : 16 bits\nCompression mode                         : Lossy\nStream size                              : 145 MiB (22%)\nLanguage                                 : English\nDefault                                  : Yes\nForced                                   : No\n &lt;a href=&quot;\nhttp://extraimago.com/images/2015/03/21/Cinderella2015DVDSCR.CAMAUDIO-FANTA.mkv_20150321_202525.767.jpg&quot; rel=&quot;nofollow&quot; target=&quot;_NEW&quot;&gt;\nhttp://extraimago.com/images/2015/03/21/Cinderella2015DVDSCR.CAMAUDIO-FANTA.mkv_20150321_202525.767.jpg&lt;/a&gt; &lt;a href=&quot;\nhttp://extraimago.com/images/2015/03/21/Cinderella2015DVDSCR.CAMAUDIO-FANTA.mkv_20150321_202613.238.jpg&quot; rel=&quot;nofollow&quot; target=&quot;_NEW&quot;&gt;\nhttp://extraimago.com/images/2015/03/21/Cinderella2015DVDSCR.CAMAUDIO-FANTA.mkv_20150321_202613.238.jpg&lt;/a&gt; &lt;a href=&quot;\nhttp://extraimago.com/images/2015/03/21/Cinderella2015DVDSCR.CAMAUDIO-FANTA.mkv_20150321_202640.897.jpg&quot; rel=&quot;nofollow&quot; target=&quot;_NEW&quot;&gt;\nhttp://extraimago.com/images/2015/03/21/Cinderella2015DVDSCR.CAMAUDIO-FANTA.mkv_20150321_202640.897.jpg&lt;/a&gt; &lt;a href=&quot;\nhttp://extraimago.com/images/2015/03/21/Cinderella2015DVDSCR.CAMAUDIO-FANTA.mkv_20150321_202733.016.jpg&quot; rel=&quot;nofollow&quot; target=&quot;_NEW&quot;&gt;\nhttp://extraimago.com/images/2015/03/21/Cinderella2015DVDSCR.CAMAUDIO-FANTA.mkv_20150321_202733.016.jpg&lt;/a&gt; &lt;a href=&quot;\nhttp://extraimago.com/images/2015/03/21/Cinderella2015DVDSCR.CAMAUDIO-FANTA.mkv_20150321_202742.221.jpg&quot; rel=&quot;nofollow&quot; target=&quot;_NEW&quot;&gt;\nhttp://extraimago.com/images/2015/03/21/Cinderella2015DVDSCR.CAMAUDIO-FANTA.mkv_20150321_202742.221.jpg&lt;/a&gt; &lt;a href=&quot;\nhttp://extraimago.com/images/2015/03/21/Cinderella2015DVDSCR.CAMAUDIO-FANTA.mkv_20150321_202801.503.jpg&quot; rel=&quot;nofollow&quot; target=&quot;_NEW&quot;&gt;\nhttp://extraimago.com/images/2015/03/21/Cinderella2015DVDSCR.CAMAUDIO-FANTA.mkv_20150321_202801.503.jpg&lt;/a&gt; &lt;a href=&quot;\nhttp://extraimago.com/images/2015/03/21/Cinderella2015DVDSCR.CAMAUDIO-FANTA.mkv_20150321_203028.753.jpg&quot; rel=&quot;nofollow&quot; target=&quot;_NEW&quot;&gt;\nhttp://extraimago.com/images/2015/03/21/Cinderella2015DVDSCR.CAMAUDIO-FANTA.mkv_20150321_203028.753.jpg&lt;/a&gt; &lt;a href=&quot;\nhttp://extraimago.com/images/2015/03/21/Cinderella2015DVDSCR.CAMAUDIO-FANTA.mkv_20150321_203050.593.jpg&quot; rel=&quot;nofollow&quot; target=&quot;_NEW&quot;&gt;\nhttp://extraimago.com/images/2015/03/21/Cinderella2015DVDSCR.CAMAUDIO-FANTA.mkv_20150321_203050.593.jpg&lt;/a&gt; &lt;a href=&quot;\nhttp://extraimago.com/images/2015/03/21/Cinderella2015DVDSCR.CAMAUDIO-FANTA.mkv_20150321_203138.031.jpg&quot; rel=&quot;nofollow&quot; target=&quot;_NEW&quot;&gt;\nhttp://extraimago.com/images/2015/03/21/Cinderella2015DVDSCR.CAMAUDIO-FANTA.mkv_20150321_203138.031.jpg&lt;/a&gt;",
  "parsed": {
    "xt": "urn:btih:233a50cde5839f6531e1669a8ae55c08ccb3f886",
    "dn": "Cinderella 2015 DVDSCR.CAM AUDIO-FANTA",
    "tr": [
      "udp://exodus.desync.com:6969",
      "udp://open.demonii.com:1337",
      "udp://tracker.coppersurfer.tk:6969",
      "udp://tracker.openbittorrent.com:80"
    ],
    "infoHash": "233a50cde5839f6531e1669a8ae55c08ccb3f886",
    "infoHashBuffer": {
      "type": "Buffer",
      "data": [
        35,
        58,
        80,
        205,
        229,
        131,
        159,
        101,
        49,
        225,
        102,
        154,
        138,
        229,
        92,
        8,
        204,
        179,
        248,
        134
      ]
    },
    "name": "Cinderella 2015 DVDSCR.CAM AUDIO-FANTA",
    "announce": [
      "udp://exodus.desync.com:6969",
      "udp://open.demonii.com:1337",
      "udp://tracker.coppersurfer.tk:6969",
      "udp://tracker.openbittorrent.com:80"
    ],
    "urlList": []
  },
  "previous": 122,
  "peers": 25,
  "last_updated": "2016-12-24T19:44:47.737Z"
}